<svg width="16" height="16" viewBox="0 0 16 16" fill="none" xmlns="http://www.w3.org/2000/svg">
<path fill-rule="evenodd" clip-rule="evenodd" d="M8 3C9.32608 3 10.5979 3.52678 11.5355 4.46447C12.4732 5.40215 13 6.67392 13 8L15 8C15 6.14349 14.2625 4.36301 12.9497 3.05025C11.637 1.7375 9.85651 1 8 0.999999C6.14348 0.999999 4.36301 1.7375 3.05025 3.05025C1.7375 4.36301 1 6.14348 0.999999 8C0.999999 8.91925 1.18106 9.8295 1.53284 10.6788C1.88462 11.5281 2.40024 12.2997 3.05025 12.9497C3.70026 13.5998 4.47193 14.1154 5.32121 14.4672C6.17049 14.8189 7.08075 15 8 15C8.91925 15 9.8295 14.8189 10.6788 14.4672L9.91342 12.6194C9.30679 12.8707 8.65661 13 8 13C7.34339 13 6.69321 12.8707 6.08658 12.6194C5.47995 12.3681 4.92876 11.9998 4.46447 11.5355C4.00017 11.0712 3.63187 10.52 3.3806 9.91342C3.12933 9.30679 3 8.65661 3 8C3 6.67392 3.52678 5.40215 4.46447 4.46447C5.40215 3.52678 6.67392 3 8 3Z" fill="url(#paint0_angular_4048_584)"/>
<defs>
<radialGradient id="paint0_angular_4048_584" cx="0" cy="0" r="1" gradientUnits="userSpaceOnUse" gradientTransform="translate(8 8) rotate(5.81691) scale(7.03623)">
<stop stop-color="#2D64E3"/>
<stop offset="1" stop-color="#2D64E3" stop-opacity="0"/>
</radialGradient>
</defs>
</svg>
